<?xml version="1.0" encoding="UTF-8"?>
<!DOCTYPE svg PUBLIC "-//W3C//DTD SVG 1.1//EN" "http://www.w3.org/Graphics/SVG/1.1/DTD/svg11.dtd">
<!-- Creator: CorelDRAW -->
<svg xmlns="http://www.w3.org/2000/svg" xml:space="preserve" width="6.82666in" height="6.82666in" style="shape-rendering:geometricPrecision; text-rendering:geometricPrecision; image-rendering:optimizeQuality; fill-rule:evenodd; clip-rule:evenodd"
viewBox="0 0 6.82666 6.82666"
 xmlns:xlink="http://www.w3.org/1999/xlink">
 <defs>
  <style type="text/css">
   <![CDATA[
    .fil0 {fill:none}
    .fil1 {fill:#212121;fill-rule:nonzero}
    .fil2 {fill:#66BB6A;fill-rule:nonzero}
   ]]>
  </style>
 </defs>
 <g id="Layer_x0020_1">
  <metadata id="CorelCorpID_0Corel-Layer"/>
  <g id="_394168480">
   <rect id="_394168336" class="fil0" width="6.82666" height="6.82666"/>
   <rect id="_394168792" class="fil0" x="0.853331" y="0.853331" width="5.12" height="5.12"/>
  </g>
  <path class="fil1" d="M1.06333 2.63001l1.50722 0c0.0428898,0.0783976 0.0963976,0.15015 0.158587,0.213339l-1.65914 0 0 0.319996 4.68666 0 0 -0.319996 -1.65913 0c0.062189,-0.063189 0.115697,-0.134941 0.158587,-0.213339l1.50722 0c0.0565591,0 0.108193,0.0232953 0.145831,0.0608346l0.000208661 -0.000208661c0.0374094,0.0374094 0.060626,0.0890945 0.060626,0.146039l0 0.333343c0,0.0569331 -0.0232165,0.10863 -0.060626,0.146039l-0.000417323 0c-0.0374055,0.0373976 -0.0889567,0.060626 -0.145622,0.060626l-4.7 0c-0.0569449,0 -0.10863,-0.0232165 -0.146039,-0.060626l0.000208661 -0.000208661c-0.0375433,-0.0376417 -0.0608346,-0.0892717 -0.0608346,-0.145831l0 -0.333343c0,-0.0564528 0.0232126,-0.107996 0.0606299,-0.145618l-3.93701e-006 -3.93701e-006 0.000208661 -0.000208661 0.000208661 -0.000208661 3.93701e-006 3.93701e-006c0.037622,-0.0374173 0.0891654,-0.0606299 0.145618,-0.0606299z"/>
  <path class="fil1" d="M1.29808 3.16335l4.2305 0 0.126512 0 -0.0215118 0.124587 -0.405248 2.34667 -0.0153268 0.088752 -0.0896732 0 -3.42 0 -0.0896732 0 -0.0153268 -0.088752 -0.405248 -2.34667 -0.0215118 -0.124587 0.126512 0zm4.10398 0.213339l-3.97746 0 0.368406 2.13333 3.24065 0 0.368406 -2.13333z"/>
  <path class="fil2" d="M2.24002 3.80335c0,-0.0589094 -0.0477598,-0.106669 -0.106669,-0.106669 -0.0589094,0 -0.106669,0.0477598 -0.106669,0.106669l0 1.2746c0,0.0589094 0.0477598,0.106669 0.106669,0.106669 0.0589094,0 0.106669,-0.0477598 0.106669,-0.106669l0 -1.2746z"/>
  <path class="fil2" d="M2.88001 3.80335c0,-0.0589094 -0.0477598,-0.106669 -0.106669,-0.106669 -0.0589094,0 -0.106669,0.0477598 -0.106669,0.106669l0 1.2746c0,0.0589094 0.0477598,0.106669 0.106669,0.106669 0.0589094,0 0.106669,-0.0477598 0.106669,-0.106669l0 -1.2746z"/>
  <path class="fil2" d="M3.52 3.80335c0,-0.0589094 -0.0477598,-0.106669 -0.106669,-0.106669 -0.0589094,0 -0.106669,0.0477598 -0.106669,0.106669l0 1.2746c0,0.0589094 0.0477598,0.106669 0.106669,0.106669 0.0589094,0 0.106669,-0.0477598 0.106669,-0.106669l0 -1.2746z"/>
  <path class="fil2" d="M4.15999 3.80335c0,-0.0589094 -0.0477598,-0.106669 -0.106669,-0.106669 -0.0589094,0 -0.106669,0.0477598 -0.106669,0.106669l0 1.2746c0,0.0589094 0.0477598,0.106669 0.106669,0.106669 0.0589094,0 0.106669,-0.0477598 0.106669,-0.106669l0 -1.2746z"/>
  <path class="fil2" d="M4.79998 3.80335c0,-0.0589094 -0.0477598,-0.106669 -0.106669,-0.106669 -0.0589094,0 -0.106669,0.0477598 -0.106669,0.106669l0 1.2746c0,0.0589094 0.0477598,0.106669 0.106669,0.106669 0.0589094,0 0.106669,-0.0477598 0.106669,-0.106669l0 -1.2746z"/>
  <path class="fil1" d="M3.41333 1.20998c0.265083,0 0.505091,0.107461 0.678815,0.281185 0.173724,0.173724 0.281185,0.413732 0.281185,0.678815 0,0.265083 -0.107457,0.505083 -0.281185,0.678815 -0.173724,0.173724 -0.413732,0.281185 -0.678815,0.281185 -0.265083,0 -0.505091,-0.107461 -0.678815,-0.281185 -0.173728,-0.173732 -0.281185,-0.413732 -0.281185,-0.678815 0,-0.265083 0.107461,-0.505091 0.281185,-0.678815 0.173724,-0.173724 0.413732,-0.281185 0.678815,-0.281185zm0.52798 0.43202c-0.13511,-0.13511 -0.321783,-0.218681 -0.52798,-0.218681 -0.206197,0 -0.39287,0.0835709 -0.52798,0.218681 -0.13511,0.13511 -0.218681,0.321783 -0.218681,0.52798 0,0.206197 0.0835709,0.392866 0.218681,0.52798 0.13511,0.13511 0.321783,0.218681 0.52798,0.218681 0.206197,0 0.39287,-0.0835709 0.52798,-0.218681 0.13511,-0.135114 0.218681,-0.321783 0.218681,-0.52798 0,-0.206197 -0.0835709,-0.39287 -0.218681,-0.52798z"/>
  <polygon class="fil1" points="3.52,1.74331 3.52,2.59665 3.30666,2.59665 3.30666,1.74331 "/>
  <polygon class="fil1" points="2.98667,2.06331 3.84,2.06331 3.84,2.27665 2.98667,2.27665 "/>
 </g>
</svg>
